<svg xmlns="http://www.w3.org/2000/svg" viewBox="0 0 256 256">
  <defs>
    <linearGradient id="bgGrad" x1="0%" y1="0%" x2="100%" y2="100%">
      <stop offset="0%" style="stop-color:#6366f1"/>
      <stop offset="100%" style="stop-color:#8b5cf6"/>
    </linearGradient>
    <linearGradient id="catGrad" x1="0%" y1="0%" x2="0%" y2="100%">
      <stop offset="0%" style="stop-color:#fcd34d"/>
      <stop offset="100%" style="stop-color:#f59e0b"/>
    </linearGradient>
  </defs>
  
  <!-- Rounded square background -->
  <rect x="8" y="8" width="240" height="240" rx="48" ry="48" fill="url(#bgGrad)"/>
  
  <!-- Cat face -->
  <ellipse cx="128" cy="145" rx="70" ry="60" fill="url(#catGrad)"/>
  
  <!-- Left ear -->
  <path d="M58 105 L48 45 L95 85 Z" fill="url(#catGrad)"/>
  <path d="M62 95 L58 60 L85 82 Z" fill="#fda4af"/>
  
  <!-- Right ear -->
  <path d="M198 105 L208 45 L161 85 Z" fill="url(#catGrad)"/>
  <path d="M194 95 L198 60 L171 82 Z" fill="#fda4af"/>
  
  <!-- Left eye -->
  <ellipse cx="100" cy="135" rx="18" ry="22" fill="#1e1b4b"/>
  <ellipse cx="105" cy="130" rx="6" ry="8" fill="white"/>
  
  <!-- Right eye -->
  <ellipse cx="156" cy="135" rx="18" ry="22" fill="#1e1b4b"/>
  <ellipse cx="161" cy="130" rx="6" ry="8" fill="white"/>
  
  <!-- Nose -->
  <path d="M128 158 L122 168 L134 168 Z" fill="#fda4af"/>
  
  <!-- Mouth -->
  <path d="M128 168 Q128 178 118 182" stroke="#92400e" stroke-width="3" fill="none" stroke-linecap="round"/>
  <path d="M128 168 Q128 178 138 182" stroke="#92400e" stroke-width="3" fill="none" stroke-linecap="round"/>
  
  <!-- Whiskers left -->
  <line x1="45" y1="150" x2="85" y2="155" stroke="#92400e" stroke-width="2" stroke-linecap="round"/>
  <line x1="45" y1="165" x2="85" y2="165" stroke="#92400e" stroke-width="2" stroke-linecap="round"/>
  <line x1="45" y1="180" x2="85" y2="175" stroke="#92400e" stroke-width="2" stroke-linecap="round"/>
  
  <!-- Whiskers right -->
  <line x1="211" y1="150" x2="171" y2="155" stroke="#92400e" stroke-width="2" stroke-linecap="round"/>
  <line x1="211" y1="165" x2="171" y2="165" stroke="#92400e" stroke-width="2" stroke-linecap="round"/>
  <line x1="211" y1="180" x2="171" y2="175" stroke="#92400e" stroke-width="2" stroke-linecap="round"/>
  
  <!-- Blush -->
  <ellipse cx="80" cy="165" rx="12" ry="8" fill="#fda4af" opacity="0.6"/>
  <ellipse cx="176" cy="165" rx="12" ry="8" fill="#fda4af" opacity="0.6"/>
</svg>
